<?xml version="1.0" encoding="utf-8"?>
<!-- Generator: Adobe Illustrator 15.0.0, SVG Export Plug-In . SVG Version: 6.00 Build 0)  -->
<!DOCTYPE svg PUBLIC "-//W3C//DTD SVG 1.0//EN" "http://www.w3.org/TR/2001/REC-SVG-20010904/DTD/svg10.dtd">
<svg version="1.0" id="Layer_1" xmlns="http://www.w3.org/2000/svg" xmlns:xlink="http://www.w3.org/1999/xlink" x="0px" y="0px"
	 width="100px" height="100px" viewBox="0 0 100 100" enable-background="new 0 0 100 100" xml:space="preserve">
<g>
	<path d="M26.544,45.276l-3.643-3.644l-2.388,2.388c-0.879,0.878-1.759,1.256-3.078,1.256H7.76c-1.193,0-2.198-0.378-3.078-1.256
		l-2.764-2.765c-0.879-0.88-1.319-2.011-1.319-3.205v-5.087c0-1.194,0.44-2.262,1.319-3.142l2.639-2.638
		c0.879-0.88,1.947-1.319,3.141-1.319h15.203v-3.267c0-0.314-0.126-0.628-0.377-0.88l-2.449-2.45
		c-0.252-0.25-0.503-0.376-0.88-0.376H7.886c-0.376,0-0.628,0.126-0.879,0.376l-2.702,2.702l-2.45-2.513l2.827-2.827
		c0.88-0.88,1.822-1.256,3.078-1.256h11.559c1.194,0,2.262,0.44,3.079,1.256l2.764,2.764c0.816,0.816,1.319,2.01,1.319,3.204v17.213
		c0,0.376,0.126,0.628,0.376,0.878l2.136,2.137L26.544,45.276z M22.901,29.382H7.886c-0.376,0-0.628,0.125-0.879,0.377l-2.45,2.449
		c-0.251,0.251-0.377,0.566-0.377,0.88v4.962c0,0.377,0.126,0.628,0.377,0.88l2.45,2.45c0.25,0.252,0.565,0.377,0.879,0.377h9.423
		c0.315,0,0.629-0.125,0.88-0.377l4.334-4.334c0.251-0.251,0.377-0.503,0.377-0.88V29.382z"/>
	<path d="M63.793,41.255l-2.762,2.765c-0.881,0.878-1.887,1.256-3.078,1.256h-8.356c-1.193,0-2.262-0.439-3.142-1.319l-3.644-3.644
		l-1.068,4.963h-3.518l1.005-4.963V3.374h3.581v16.962l3.644-3.644c0.88-0.879,1.948-1.319,3.142-1.319h8.356
		c1.191,0,2.197,0.376,3.078,1.256l2.762,2.764c0.883,0.879,1.32,1.948,1.32,3.204v15.329
		C65.113,39.181,64.676,40.375,63.793,41.255z M61.533,22.597c0-0.377-0.125-0.628-0.377-0.88l-2.449-2.45
		c-0.252-0.25-0.566-0.376-0.881-0.376h-8.229c-0.377,0-0.691,0.126-0.942,0.376l-5.466,5.466c-0.251,0.251-0.377,0.565-0.377,0.88
		v9.423c0,0.314,0.126,0.628,0.377,0.879l5.466,5.465c0.251,0.252,0.565,0.377,0.942,0.377h8.229c0.314,0,0.629-0.125,0.881-0.377
		l2.449-2.45c0.252-0.252,0.377-0.816,0.377-1.194V22.597z"/>
	<path d="M95.705,44.02c-0.879,0.878-1.822,1.256-3.078,1.256H81.066c-1.193,0-2.197-0.378-3.078-1.256l-2.764-2.765
		c-0.879-0.88-1.318-2.011-1.318-3.205V22.597c0-1.194,0.439-2.325,1.318-3.204l2.764-2.764c0.881-0.88,1.822-1.256,3.078-1.256
		h11.561c1.256,0,2.199,0.376,3.078,1.256l3.895,3.896l-2.514,2.513l-3.705-3.77c-0.252-0.25-0.504-0.376-0.879-0.376H81.193
		c-0.379,0-0.629,0.126-0.879,0.376l-2.451,2.45c-0.25,0.251-0.377,0.565-0.377,0.88v15.454c0,0.314,0.127,0.628,0.377,0.88
		l2.451,2.45c0.25,0.252,0.5,0.377,0.879,0.377h11.309c0.375,0,0.627-0.125,0.879-0.377l3.705-3.769l2.514,2.513L95.705,44.02z"/>
	<path d="M29.73,84.875L21.25,72.75l-8.606,12.125H8.309l10.994-14.951L8.371,54.971h4.46l8.481,12.063l8.48-12.063h4.398
		L23.26,69.861l10.931,15.014H29.73z"/>
	<path d="M48.008,96.811h-3.77l4.397-12l-10.931-29.84h3.832l9.046,24.754l9.108-24.754h3.707L48.008,96.811z"/>
	<path d="M68.234,84.875v-3.518L87.646,58.49H68.234v-3.52h23.998v3.52L72.756,81.357h19.477v3.518H68.234z"/>
</g>
</svg>
