<?xml version="1.0" encoding="utf-8"?>
<!-- Generator: Adobe Illustrator 15.0.0, SVG Export Plug-In . SVG Version: 6.00 Build 0)  -->
<!DOCTYPE svg PUBLIC "-//W3C//DTD SVG 1.0//EN" "http://www.w3.org/TR/2001/REC-SVG-20010904/DTD/svg10.dtd">
<svg version="1.0" id="Layer_1" xmlns="http://www.w3.org/2000/svg" xmlns:xlink="http://www.w3.org/1999/xlink" x="0px" y="0px"
	 width="100px" height="100px" viewBox="0 0 100 100" enable-background="new 0 0 100 100" xml:space="preserve">
<g id="Recycle">
	<path fill="#FFFFFF" stroke="#000000" stroke-width="3.5249" stroke-miterlimit="10" d="M66.475,71.763l6.828,14.742
		c-7.366,5.063-15.305,7.676-23.797,7.831c-8.176,0.206-15.555-1.863-22.159-6.201c-5.06-3.335-9.006-7.746-11.829-13.233
		c-2.93-5.721-4.281-11.905-4.054-18.525l-8.31,3.551l8.903-23.171l15.5,12.892l-7.476,3.211c0.441,8.694,4.491,15.552,12.16,20.606
		C42.082,79.945,53.494,79.367,66.475,71.763z M72.326,13.491c5.061,3.324,9.018,7.718,11.857,13.174
		c2.94,5.724,4.281,11.922,4.026,18.585l8.262-3.582l-8.855,23.198l-15.5-12.888l7.47-3.218
		c-0.432-8.691-4.484-15.553-12.161-20.603c-9.836-6.477-21.245-5.903-34.222,1.708l-6.832-14.741
		c7.394-5.109,15.338-7.742,23.831-7.893C58.354,7.052,65.724,9.143,72.326,13.491z"/>
</g>
</svg>
