<?xml version="1.0" encoding="utf-8"?>
<!-- Generator: Adobe Illustrator 15.0.0, SVG Export Plug-In . SVG Version: 6.00 Build 0)  -->
<!DOCTYPE svg PUBLIC "-//W3C//DTD SVG 1.0//EN" "http://www.w3.org/TR/2001/REC-SVG-20010904/DTD/svg10.dtd">
<svg version="1.0" id="Layer_1" xmlns="http://www.w3.org/2000/svg" xmlns:xlink="http://www.w3.org/1999/xlink" x="0px" y="0px"
	 width="100px" height="100px" viewBox="0 0 100 100" enable-background="new 0 0 100 100" xml:space="preserve">
<g>
	<path d="M26.544,45.276l-0.911-0.911l-0.911-0.911l-0.911-0.911l-0.911-0.911l-0.597,0.597l-0.597,0.597l-0.597,0.597l-0.597,0.597
		c-0.22,0.219-0.44,0.408-0.667,0.566c-0.227,0.159-0.46,0.289-0.708,0.391c-0.247,0.102-0.508,0.177-0.79,0.226
		c-0.281,0.049-0.584,0.073-0.914,0.073h-2.418h-2.419h-2.419H7.76c-0.298,0-0.585-0.023-0.86-0.073
		c-0.276-0.049-0.541-0.124-0.796-0.226s-0.5-0.231-0.737-0.391c-0.236-0.159-0.464-0.347-0.684-0.566l-0.691-0.691L3.3,42.638
		l-0.691-0.691l-0.691-0.691c-0.22-0.22-0.412-0.456-0.577-0.704c-0.165-0.248-0.302-0.509-0.413-0.78
		c-0.11-0.271-0.192-0.552-0.247-0.84c-0.055-0.288-0.083-0.582-0.083-0.881v-1.271v-1.272v-1.272v-1.271
		c0-0.298,0.027-0.589,0.083-0.871c0.055-0.282,0.137-0.555,0.247-0.818c0.11-0.263,0.248-0.517,0.413-0.759
		c0.165-0.243,0.357-0.474,0.577-0.694l0.66-0.66l0.66-0.659l0.66-0.659l0.66-0.66c0.22-0.22,0.451-0.413,0.694-0.578
		c0.242-0.165,0.495-0.302,0.758-0.412s0.536-0.192,0.818-0.247s0.572-0.082,0.871-0.082h3.801H15.3h3.801h3.8v-0.817V24.23v-0.816
		v-0.817c0-0.079-0.008-0.157-0.024-0.234c-0.016-0.078-0.039-0.154-0.07-0.229s-0.071-0.147-0.118-0.217
		c-0.047-0.07-0.102-0.137-0.165-0.2l-0.612-0.612L21.3,20.492l-0.612-0.612l-0.612-0.613c-0.063-0.063-0.126-0.117-0.191-0.165
		c-0.065-0.047-0.132-0.086-0.203-0.117c-0.07-0.031-0.145-0.055-0.226-0.07c-0.081-0.016-0.167-0.024-0.261-0.024h-2.827h-2.827
		h-2.827H7.886c-0.094,0-0.18,0.008-0.261,0.024c-0.081,0.016-0.155,0.039-0.226,0.07s-0.138,0.07-0.202,0.117
		c-0.065,0.047-0.128,0.102-0.19,0.165l-0.675,0.675l-0.675,0.676L4.98,21.293l-0.675,0.675l-0.613-0.628L3.08,20.712l-0.612-0.628
		l-0.613-0.628l0.707-0.707l0.707-0.707l0.707-0.707l0.707-0.707c0.22-0.22,0.444-0.408,0.675-0.567
		c0.232-0.159,0.472-0.289,0.723-0.391s0.514-0.177,0.793-0.226c0.278-0.049,0.573-0.072,0.887-0.072h2.89h2.89h2.89h2.89
		c0.298,0,0.589,0.027,0.87,0.082c0.281,0.054,0.552,0.134,0.811,0.24s0.507,0.238,0.74,0.394s0.453,0.336,0.658,0.541l0.691,0.691
		l0.691,0.691l0.691,0.691l0.691,0.691c0.204,0.204,0.389,0.432,0.55,0.677c0.162,0.246,0.301,0.508,0.415,0.783
		s0.203,0.562,0.262,0.854c0.06,0.292,0.091,0.591,0.091,0.89V26.9v4.303v4.303v4.303c0,0.094,0.008,0.18,0.024,0.261
		c0.016,0.081,0.039,0.155,0.07,0.226s0.07,0.137,0.117,0.202c0.047,0.065,0.102,0.127,0.165,0.19l0.534,0.535l0.534,0.534
		l0.534,0.534l0.534,0.534l-0.612,0.613l-0.612,0.613l-0.612,0.612L26.544,45.276z M22.901,29.382h-3.753h-3.754H11.64H7.886
		c-0.094,0-0.18,0.008-0.261,0.023s-0.155,0.039-0.226,0.07s-0.138,0.071-0.202,0.118c-0.065,0.047-0.128,0.102-0.19,0.165
		l-0.612,0.612l-0.612,0.612L5.17,31.596l-0.613,0.612c-0.063,0.063-0.118,0.129-0.165,0.199c-0.047,0.07-0.087,0.143-0.118,0.217
		s-0.055,0.151-0.07,0.229c-0.016,0.078-0.024,0.156-0.024,0.235v1.24v1.241v1.241v1.24c0,0.094,0.008,0.181,0.024,0.261
		c0.016,0.081,0.039,0.155,0.07,0.226s0.071,0.138,0.118,0.203c0.047,0.064,0.102,0.128,0.165,0.191l0.613,0.613l0.612,0.612
		l0.612,0.612l0.612,0.612c0.063,0.063,0.129,0.118,0.199,0.165c0.069,0.047,0.142,0.087,0.217,0.118s0.151,0.055,0.229,0.07
		s0.156,0.023,0.235,0.023h2.356h2.355h2.355h2.356c0.079,0,0.158-0.008,0.235-0.023s0.154-0.039,0.229-0.07
		s0.147-0.071,0.217-0.118c0.07-0.047,0.136-0.102,0.199-0.165l1.083-1.083l1.083-1.083l1.083-1.083l1.083-1.083
		c0.063-0.063,0.118-0.125,0.165-0.19c0.047-0.064,0.087-0.131,0.118-0.202s0.055-0.146,0.07-0.226
		c0.016-0.081,0.024-0.167,0.024-0.261V34.47v-1.696v-1.696L22.901,29.382L22.901,29.382L22.901,29.382L22.901,29.382L22.901,29.382
		z"/>
	<path d="M63.793,41.255l-0.69,0.691l-0.69,0.691l-0.69,0.691l-0.69,0.691c-0.221,0.219-0.448,0.408-0.686,0.566
		c-0.236,0.159-0.482,0.289-0.737,0.391s-0.521,0.177-0.796,0.226c-0.275,0.049-0.562,0.073-0.859,0.073h-2.089h-2.089h-2.089
		h-2.089c-0.298,0-0.589-0.027-0.871-0.083c-0.282-0.055-0.555-0.137-0.818-0.247s-0.517-0.247-0.759-0.412
		s-0.475-0.357-0.694-0.577l-0.911-0.911l-0.911-0.911l-0.911-0.911l-0.911-0.911l-0.267,1.241l-0.267,1.241l-0.267,1.241
		l-0.267,1.241h-0.879h-0.879h-0.88h-0.879l0.251-1.241l0.251-1.241l0.251-1.241l0.251-1.241v-9.235v-9.234v-9.235V3.374h0.895
		h0.896h0.896h0.895v4.24v4.241v4.241v4.24l0.911-0.911l0.911-0.911l0.911-0.911l0.911-0.911c0.22-0.22,0.452-0.412,0.694-0.577
		c0.242-0.165,0.496-0.302,0.759-0.412c0.263-0.11,0.536-0.192,0.818-0.248s0.573-0.083,0.871-0.083h2.089h2.089h2.089h2.089
		c0.298,0,0.584,0.023,0.859,0.072s0.541,0.124,0.796,0.226s0.501,0.231,0.737,0.391c0.237,0.159,0.465,0.348,0.686,0.567
		l0.69,0.691l0.69,0.691l0.69,0.691l0.69,0.691c0.221,0.22,0.414,0.451,0.579,0.695c0.165,0.243,0.302,0.499,0.412,0.766
		s0.192,0.546,0.247,0.836s0.082,0.593,0.082,0.907v3.833v3.832v3.832v3.832c0,0.314-0.027,0.624-0.082,0.926
		s-0.137,0.596-0.247,0.879s-0.247,0.554-0.412,0.809S64.014,41.035,63.793,41.255z M61.533,22.597c0-0.094-0.008-0.181-0.023-0.261
		c-0.016-0.081-0.039-0.155-0.07-0.226s-0.07-0.137-0.118-0.202c-0.047-0.065-0.103-0.128-0.165-0.191l-0.612-0.612l-0.612-0.612
		l-0.612-0.612l-0.612-0.613c-0.063-0.063-0.13-0.117-0.199-0.165c-0.07-0.047-0.143-0.086-0.218-0.117s-0.151-0.055-0.229-0.07
		c-0.077-0.016-0.156-0.024-0.234-0.024H55.77h-2.058h-2.058h-2.057c-0.094,0-0.185,0.008-0.271,0.024
		c-0.086,0.016-0.169,0.039-0.247,0.07c-0.079,0.031-0.153,0.07-0.224,0.117c-0.071,0.047-0.137,0.102-0.2,0.165l-1.367,1.367
		L45.922,22l-1.366,1.366l-1.367,1.367c-0.063,0.063-0.118,0.129-0.165,0.199c-0.047,0.069-0.087,0.142-0.118,0.217
		s-0.055,0.151-0.07,0.229c-0.016,0.078-0.024,0.157-0.024,0.235v2.356v2.355v2.356v2.356c0,0.079,0.008,0.157,0.024,0.234
		c0.016,0.078,0.039,0.154,0.07,0.229c0.031,0.075,0.071,0.147,0.118,0.217c0.047,0.07,0.102,0.137,0.165,0.199l1.367,1.366
		l1.366,1.366l1.366,1.366l1.367,1.366c0.063,0.063,0.129,0.118,0.2,0.165c0.071,0.047,0.146,0.087,0.224,0.118
		c0.078,0.031,0.161,0.055,0.247,0.07s0.177,0.023,0.271,0.023h2.057h2.058h2.058h2.057c0.078,0,0.157-0.008,0.234-0.023
		c0.078-0.016,0.154-0.039,0.229-0.07s0.147-0.071,0.218-0.118c0.069-0.047,0.137-0.102,0.199-0.165l0.612-0.612l0.612-0.612
		l0.612-0.612l0.612-0.613c0.063-0.063,0.118-0.146,0.165-0.24c0.048-0.094,0.087-0.2,0.118-0.31s0.055-0.224,0.07-0.334
		c0.016-0.11,0.023-0.216,0.023-0.311v-3.785v-3.785v-3.785V22.597z"/>
	<path d="M95.705,44.02c-0.22,0.219-0.443,0.408-0.675,0.566c-0.231,0.159-0.472,0.289-0.723,0.391s-0.515,0.177-0.794,0.226
		c-0.278,0.049-0.572,0.073-0.887,0.073h-2.891h-2.89h-2.89h-2.891c-0.299,0-0.585-0.023-0.86-0.073
		c-0.276-0.049-0.541-0.124-0.796-0.226s-0.5-0.231-0.737-0.391c-0.236-0.159-0.464-0.347-0.685-0.566l-0.691-0.691l-0.69-0.691
		l-0.69-0.691l-0.691-0.691c-0.22-0.22-0.412-0.456-0.577-0.704c-0.165-0.248-0.302-0.509-0.411-0.78
		c-0.11-0.271-0.193-0.552-0.248-0.84c-0.055-0.288-0.082-0.582-0.082-0.881v-3.863v-3.863V26.46v-3.863
		c0-0.298,0.027-0.593,0.082-0.881s0.138-0.568,0.248-0.839c0.109-0.271,0.246-0.532,0.411-0.78
		c0.165-0.249,0.357-0.484,0.577-0.704l0.691-0.691l0.69-0.691l0.69-0.691l0.691-0.691c0.221-0.22,0.444-0.408,0.676-0.567
		c0.232-0.159,0.472-0.289,0.723-0.391s0.514-0.177,0.793-0.226c0.278-0.049,0.572-0.072,0.887-0.072h2.891h2.89h2.89h2.891
		c0.314,0,0.608,0.023,0.887,0.072c0.279,0.049,0.543,0.124,0.794,0.226s0.491,0.231,0.723,0.391s0.455,0.348,0.675,0.567
		l0.974,0.974l0.974,0.974l0.974,0.974l0.974,0.974l-0.629,0.628l-0.628,0.628l-0.628,0.628l-0.629,0.628l-0.926-0.942l-0.927-0.942
		l-0.927-0.942l-0.926-0.943c-0.063-0.063-0.126-0.117-0.191-0.165c-0.064-0.047-0.131-0.086-0.202-0.117s-0.146-0.055-0.226-0.07
		c-0.08-0.016-0.166-0.024-0.26-0.024h-2.827h-2.827h-2.827h-2.827c-0.095,0-0.182,0.008-0.262,0.024
		c-0.081,0.016-0.156,0.039-0.227,0.07s-0.137,0.07-0.201,0.117c-0.064,0.047-0.127,0.102-0.189,0.165l-0.613,0.613l-0.612,0.612
		l-0.612,0.612l-0.613,0.612c-0.063,0.063-0.117,0.129-0.164,0.199c-0.047,0.069-0.086,0.142-0.118,0.217s-0.056,0.151-0.071,0.229
		s-0.023,0.157-0.023,0.235v3.864v3.863v3.863v3.863c0,0.079,0.008,0.157,0.023,0.235s0.039,0.154,0.071,0.229
		c0.032,0.074,0.071,0.147,0.118,0.217s0.102,0.137,0.164,0.2l0.613,0.613l0.612,0.612l0.612,0.612l0.613,0.612
		c0.063,0.063,0.125,0.118,0.189,0.165c0.064,0.047,0.131,0.087,0.201,0.118s0.146,0.055,0.227,0.07
		c0.08,0.016,0.167,0.023,0.262,0.023h2.827h2.827h2.827h2.827c0.094,0,0.18-0.008,0.26-0.023s0.154-0.039,0.226-0.07
		s0.138-0.071,0.202-0.118c0.065-0.047,0.129-0.102,0.191-0.165l0.926-0.942l0.927-0.942l0.927-0.942l0.926-0.942l0.629,0.628
		l0.628,0.628l0.628,0.628l0.629,0.628L98.626,41.1l-0.974,0.974l-0.974,0.974L95.705,44.02z"/>
	<path d="M29.73,84.875l-2.12-3.031l-2.12-3.031l-2.12-3.031l-2.12-3.031l-2.151,3.031l-2.151,3.031l-2.151,3.031l-2.152,3.031
		h-1.083h-1.084H9.393H8.309l2.749-3.738l2.749-3.737l2.749-3.737l2.749-3.738l-2.733-3.738l-2.733-3.738l-2.733-3.738l-2.733-3.738
		h1.115h1.115h1.115h1.115l2.12,3.016l2.12,3.016l2.12,3.016l2.121,3.017l2.12-3.017l2.12-3.016l2.12-3.016l2.12-3.016h1.1h1.1h1.1
		h1.099l-2.733,3.723l-2.732,3.723l-2.732,3.723l-2.732,3.723l2.733,3.754l2.733,3.753l2.732,3.753l2.733,3.754h-1.115H31.96h-1.115
		H29.73z"/>
	<path d="M48.008,96.811h-0.942h-0.942h-0.942h-0.943l1.099-3l1.1-3l1.099-3l1.099-3l-2.732-7.46l-2.733-7.46l-2.733-7.46
		l-2.732-7.46h0.958h0.958h0.958h0.958l2.262,6.188l2.261,6.188l2.261,6.188l2.262,6.188l2.277-6.188l2.276-6.188l2.276-6.188
		l2.277-6.188h0.927h0.927h0.927h0.927l-3.848,10.46l-3.847,10.46l-3.847,10.46L48.008,96.811z"/>
	<path d="M68.234,84.875v-0.879v-0.88v-0.88v-0.879l4.854-5.717l4.853-5.717l4.853-5.717l4.854-5.717h-4.854H77.94h-4.853h-4.854
		v-0.88v-0.88V55.85v-0.88h6h5.999h5.999h6v0.88v0.881v0.88v0.88l-4.869,5.717l-4.869,5.717l-4.869,5.717l-4.869,5.717h4.869h4.869
		h4.869h4.869v0.879v0.88v0.88v0.879h-6h-5.999h-5.999H68.234z"/>
</g>
</svg>
